<svg width="275" height="276" viewBox="0 0 275 276" fill="none" xmlns="http://www.w3.org/2000/svg">
<path fill-rule="evenodd" clip-rule="evenodd" d="M154.689 139.191L194.001 195.341L137.851 156.029L81.7016 195.341L121.013 139.191L81.7016 83.0415L137.851 122.352L194.001 83.0415L154.689 139.191Z" fill="#102F2B"/>
<path fill-rule="evenodd" clip-rule="evenodd" d="M183.872 93.1692L151.652 139.191L137.851 139.191L183.872 93.1692Z" fill="url(#paint0_linear_325_5754)"/>
<path fill-rule="evenodd" clip-rule="evenodd" d="M183.872 93.1692L137.851 125.391L137.851 139.191L183.872 93.1692Z" fill="white"/>
<path fill-rule="evenodd" clip-rule="evenodd" d="M183.872 185.212L137.851 152.991L137.851 139.191L183.872 185.212Z" fill="url(#paint1_linear_325_5754)"/>
<path fill-rule="evenodd" clip-rule="evenodd" d="M183.872 185.212L151.652 139.191L137.851 139.191L183.872 185.212Z" fill="white"/>
<path fill-rule="evenodd" clip-rule="evenodd" d="M91.8299 185.212L124.05 139.191L137.851 139.191L91.8299 185.212Z" fill="url(#paint2_linear_325_5754)"/>
<path fill-rule="evenodd" clip-rule="evenodd" d="M91.8299 185.212L137.851 152.991L137.851 139.191L91.8299 185.212Z" fill="white"/>
<path fill-rule="evenodd" clip-rule="evenodd" d="M91.8299 93.1692L137.851 125.391L137.851 139.191L91.8299 93.1692Z" fill="url(#paint3_linear_325_5754)"/>
<path fill-rule="evenodd" clip-rule="evenodd" d="M91.8299 93.1692L124.05 139.191L137.851 139.191L91.8299 93.1692Z" fill="white"/>
<path d="M131.906 15.4526C132.113 15.9338 132.192 16.1535 132.391 16.1415C132.612 16.1281 132.687 15.899 132.993 15.0946C133.705 13.3006 135.775 6.43995 136.07 5.45628L136.114 5.45362L140.578 14.7025C140.909 15.4008 141.033 15.6178 141.209 15.6071C141.452 15.5924 141.549 15.362 141.708 14.6788C142.442 11.783 144.045 5.64655 144.762 3.20088C145.095 2.10337 145.247 1.33057 145.701 1.12323C145.896 1.04378 146.159 1.00551 146.336 0.994793C146.513 0.984074 146.599 0.934301 146.59 0.799496C146.582 0.665409 146.449 0.651203 146.249 0.663251C145.63 0.700725 144.837 0.793331 144.705 0.801349C144.528 0.812068 143.752 0.814389 142.757 0.874587C142.47 0.891994 142.317 0.923565 142.325 1.05765C142.333 1.19174 142.468 1.2289 142.667 1.21685C143.396 1.17273 143.568 1.43152 143.585 1.72264C143.601 1.99081 143.582 2.39645 143.476 2.85194C142.947 5.10631 141.746 10.1857 141.492 11.4807L141.448 11.4834L136.979 2.16704C136.678 1.57932 136.572 1.29356 136.373 1.30561C136.218 1.31496 136.117 1.47796 135.95 2.02707L132.995 11.8373L132.951 11.8399C132.555 10.7866 130.368 5.44077 129.983 4.20683C129.712 3.39274 129.473 2.75586 129.459 2.50992C129.446 2.30843 129.482 2.17169 129.632 2.07267C129.76 1.99725 129.959 1.98519 130.092 1.97718C130.291 1.96513 130.444 1.93355 130.435 1.77652C130.428 1.66466 130.293 1.62823 130.027 1.6443C128.944 1.70986 128.129 1.8038 127.952 1.81447C127.775 1.82519 126.756 1.84226 125.784 1.90109C125.519 1.91712 125.365 1.94874 125.373 2.08282C125.383 2.23914 125.495 2.2554 125.694 2.24335C125.848 2.234 126.227 2.25569 126.456 2.37712C126.71 2.54167 126.958 2.97502 127.223 3.67797L131.906 15.4526Z" fill="#092C4C"/>
<path d="M141.238 266.775C141.272 265.019 141.301 263.511 141.42 262.701C141.513 262.163 141.625 261.737 142.061 261.678C142.248 261.637 142.497 261.596 142.808 261.602C143.056 261.606 143.161 261.564 143.163 261.474C143.165 261.339 143 261.268 142.732 261.262C142.317 261.255 141.757 261.289 141.281 261.279C140.783 261.292 140.307 261.283 140.079 261.279C139.458 261.267 138.796 261.232 137.906 261.17C136.994 261.13 135.835 261.085 134.261 261.055C133.453 261.04 133.267 261.036 133.112 261.529C133.002 261.887 132.811 263.19 132.802 263.639C132.799 263.82 132.796 263.977 132.962 263.98C133.106 263.983 133.15 263.894 133.195 263.692C133.355 262.906 133.611 262.529 134.175 262.292C134.718 262.077 135.608 262.094 136.147 262.104C138.301 262.145 138.627 262.445 138.643 263.751C138.653 264.314 138.599 266.07 138.587 266.723L138.558 268.209C138.556 268.344 138.534 268.411 138.43 268.409C137.933 268.4 135.841 268.337 135.449 268.284C134.664 268.201 134.379 267.904 134.283 267.519C134.225 267.27 134.23 267.023 134.213 266.842C134.215 266.752 134.175 266.661 134.03 266.658C133.843 266.655 133.839 266.88 133.836 267.015C133.834 267.15 133.757 267.914 133.729 268.296C133.607 269.262 133.518 269.576 133.516 269.688C133.513 269.801 133.575 269.847 133.679 269.849C133.782 269.851 133.867 269.74 134.015 269.608C134.205 269.408 134.517 269.37 135.035 269.334C135.512 269.298 137.936 269.345 138.392 269.353C138.516 269.356 138.535 269.446 138.532 269.581L138.44 274.399C138.438 274.534 138.396 274.579 138.292 274.577C137.878 274.569 135.662 274.504 135.311 274.452C134.257 274.319 134.054 274.09 133.916 273.727C133.817 273.5 133.802 273.184 133.805 273.049C133.808 272.869 133.769 272.779 133.623 272.776C133.457 272.773 133.414 272.885 133.392 272.974C133.346 273.221 133.288 274.053 133.264 274.233C133.185 275.11 133.077 275.333 133.075 275.468C133.072 275.581 133.092 275.649 133.195 275.651C133.299 275.653 133.424 275.588 133.528 275.59C133.715 275.548 134.047 275.509 134.442 275.472C134.836 275.48 139.04 275.56 139.703 275.572C139.993 275.578 140.49 275.587 141.028 275.62C141.567 275.63 142.167 275.664 142.726 275.675C143.058 275.681 143.203 275.639 143.205 275.527C143.208 275.392 143.085 275.344 142.836 275.339C142.545 275.334 142.194 275.305 142.029 275.256C141.327 275.108 141.167 274.811 141.138 274.158C141.108 273.55 141.119 273.009 141.174 270.128L141.238 266.775L141.238 266.775Z" fill="#092C4C"/>
<path d="M270.254 135.243L270.32 135.243C269.969 135.551 268.276 137.275 266.276 139.163C264.365 140.969 261.925 143.206 260.804 144.294C260.606 144.479 260.386 144.704 260.386 144.889C260.386 145.033 260.563 145.115 260.98 145.115L272.715 145.3C273.748 145.32 274.144 145.464 274.298 145.957C274.341 146.162 274.341 146.285 274.341 146.47C274.341 146.675 274.407 146.778 274.517 146.778C274.671 146.778 274.671 146.613 274.671 146.387C274.671 145.115 274.671 143.843 274.671 142.57C274.671 142.324 274.671 142.119 274.517 142.119C274.407 142.119 274.341 142.201 274.341 142.406C274.341 142.652 274.341 143.063 274.231 143.33C274.055 143.741 273.704 143.926 272.561 143.904L264.605 143.843L264.605 143.76C264.892 143.452 267.177 141.359 268.451 140.189C271.154 137.644 274.187 134.996 274.429 134.791C274.758 134.504 275 134.34 275 134.155C275 133.97 274.736 133.724 274.362 133.724L263.352 133.559C261.726 133.539 261.177 133.683 261.044 133.231C260.956 132.985 260.956 132.677 260.956 132.452C260.956 132.267 260.913 132.164 260.803 132.164C260.627 132.164 260.605 132.329 260.605 132.554C260.605 133.888 260.605 135.243 260.605 136.577C260.605 136.823 260.648 136.987 260.803 136.987C260.913 136.987 260.956 136.885 260.956 136.7C260.956 136.412 260.978 136.084 261.088 135.776C261.22 135.448 261.703 135.16 263.154 135.181L270.254 135.243Z" fill="#092C4C"/>
<path d="M15.942 139.119C15.942 137.933 15.7496 136.702 15.1016 135.585C14.1412 133.981 12.749 133.493 11.5723 133.493C9.62752 133.493 8.23534 134.446 6.38679 137.143L5.95427 137.77C4.68214 139.607 3.9618 140.118 3.02521 140.118C1.80079 140.118 0.936554 139.119 0.936554 137.468C0.936554 136.027 1.53684 135.376 1.92086 135.051C2.4488 134.586 3.07293 134.47 3.26533 134.47C3.50544 134.47 3.62549 134.4 3.62549 134.26C3.62549 134.074 3.48158 134.005 3.02521 134.005C1.44063 134.005 0.840361 133.912 0.576392 133.912C0.432479 133.912 0.383986 134.028 0.336271 134.237C0.192358 134.818 -2.95939e-05 135.748 -2.97829e-05 137.19C-3.01883e-05 140.282 1.6084 142.304 3.84098 142.304C5.47328 142.304 6.91394 141.467 8.64244 139.026L9.38664 138.003C10.7073 136.166 11.6431 135.818 12.6274 135.818C13.7079 135.818 14.9561 136.794 14.9561 138.793C14.9561 140.188 14.4044 141.49 12.8914 141.978C12.555 142.095 12.1233 142.188 11.8593 142.188C11.6916 142.188 11.523 142.211 11.523 142.397C11.523 142.584 11.7393 142.653 12.051 142.676C12.3634 142.699 13.5878 142.792 14.716 142.792C15.1486 142.792 15.2678 142.722 15.4125 142.35C15.7981 141.397 15.942 140.397 15.942 139.119Z" fill="#092C4C"/>
<path d="M233.755 139.191C233.755 165.683 222.993 189.644 205.648 206.988C188.304 224.333 164.343 235.094 137.851 235.094C111.391 235.094 87.3986 224.333 70.0541 206.988C52.7096 189.644 41.9793 165.683 41.9793 139.191C41.9793 112.73 52.7086 88.7383 70.0541 71.3938C87.3996 54.0493 111.391 43.319 137.851 43.319C164.343 43.319 188.304 54.0483 205.648 71.3938C222.994 88.7383 233.755 112.73 233.755 139.191ZM204.319 205.659C221.316 188.663 231.856 165.145 231.856 139.191C231.856 113.237 221.317 89.7519 204.319 72.7544C187.29 55.7254 163.806 45.2173 137.851 45.2173C111.897 45.2173 88.4121 55.7254 71.3832 72.7544C54.3867 89.7508 43.8786 113.237 43.8786 139.191C43.8786 165.145 54.3867 188.663 71.3832 205.659C88.4121 222.656 111.897 233.196 137.851 233.196C163.806 233.196 187.29 222.656 204.319 205.659Z" fill="url(#paint4_linear_325_5754)"/>
<path fill-rule="evenodd" clip-rule="evenodd" d="M244.675 139.191L232.077 141.818C232.077 140.932 232.109 140.077 232.109 139.191C232.109 138.337 232.077 137.45 232.077 136.596L244.675 139.191ZM225.906 172.836L236.541 180.084L223.912 177.679C224.639 176.096 225.304 174.482 225.906 172.836ZM206.313 203.981L213.403 214.743L202.641 207.653C203.876 206.449 205.111 205.247 206.313 203.981ZM176.307 225.251L178.744 237.879L171.496 227.245C173.143 226.644 174.757 225.978 176.307 225.251ZM140.478 233.417L137.851 246.015L135.256 233.417C136.11 233.417 136.997 233.449 137.851 233.449C138.737 233.449 139.592 233.417 140.478 233.417ZM104.206 227.245L96.9894 237.879L99.395 225.251C100.978 225.978 102.592 226.644 104.206 227.245ZM73.0926 207.653L62.3308 214.743L69.3894 203.981C70.5917 205.247 71.8264 206.449 73.0926 207.653ZM51.7912 177.679L39.1626 180.084L49.7976 172.836C50.4297 174.482 51.0942 176.096 51.7912 177.679ZM43.6563 141.818L31.0276 139.191L43.6563 136.596C43.6248 137.45 43.5933 138.337 43.5933 139.191C43.5933 140.077 43.6248 140.931 43.6563 141.818ZM49.7966 105.545L39.1616 98.3282L51.7902 100.734C51.0942 102.317 50.4297 103.931 49.7966 105.545ZM69.3894 74.4315L62.3308 63.6697L73.0926 70.7282C71.8264 71.9315 70.5917 73.1663 69.3894 74.4315ZM99.395 53.1301L96.9894 40.5014L104.206 51.1364C102.592 51.7695 100.978 52.4341 99.395 53.1301ZM135.256 44.9961L137.851 32.3674L140.478 44.9961C139.592 44.9646 138.737 44.9332 137.851 44.9332C136.997 44.9332 136.11 44.9646 135.256 44.9961ZM171.496 51.1364L178.744 40.5014L176.307 53.1301C174.757 52.4341 173.143 51.7695 171.496 51.1364ZM202.641 70.7282L213.403 63.6697L206.313 74.4315C205.111 73.1663 203.876 71.9315 202.641 70.7282ZM223.911 100.734L236.54 98.3282L225.905 105.545C225.304 103.931 224.639 102.317 223.911 100.734Z" fill="url(#paint5_linear_325_5754)"/>
<path d="M228.912 139.191C228.912 164.354 218.72 187.111 202.261 203.602C185.771 220.06 163.014 230.252 137.851 230.252C112.719 230.252 89.9306 220.06 73.4718 203.602C56.9816 187.111 46.7901 164.354 46.7901 139.191C46.7901 114.06 56.9816 91.2709 73.4719 74.8122C89.9306 58.322 112.719 48.1304 137.851 48.1304C163.014 48.1304 185.771 58.322 202.261 74.8122C218.72 91.2709 228.912 114.06 228.912 139.191ZM197.767 199.107C213.118 183.788 222.582 162.582 222.582 139.191C222.582 115.801 213.118 94.6262 197.767 79.2754C182.447 63.956 161.241 54.4604 137.851 54.4604C114.46 54.4604 93.2858 63.956 77.935 79.2753C62.6157 94.6262 53.1201 115.801 53.1201 139.191C53.1201 162.582 62.6157 183.788 77.935 199.107C93.2858 214.458 114.46 223.922 137.851 223.922C161.241 223.922 182.447 214.458 197.767 199.107Z" fill="url(#paint6_linear_325_5754)"/>
<path fill-rule="evenodd" clip-rule="evenodd" d="M155.545 156.884L137.851 257.029L120.19 156.884L20.0134 139.191L120.19 121.529L137.851 21.352L155.545 121.529L255.689 139.191L155.545 156.884Z" fill="#03695D"/>
<path fill-rule="evenodd" clip-rule="evenodd" d="M234.419 139.191L152.347 153.687L137.851 139.191L234.419 139.191Z" fill="url(#paint7_linear_325_5754)"/>
<path fill-rule="evenodd" clip-rule="evenodd" d="M234.419 139.191L152.347 124.726L137.851 139.191L234.419 139.191Z" fill="white"/>
<path fill-rule="evenodd" clip-rule="evenodd" d="M137.851 235.759L123.354 153.687L137.851 139.191L137.851 235.759Z" fill="url(#paint8_linear_325_5754)"/>
<path fill-rule="evenodd" clip-rule="evenodd" d="M137.851 235.759L152.348 153.687L137.851 139.191L137.851 235.759Z" fill="white"/>
<path fill-rule="evenodd" clip-rule="evenodd" d="M41.2829 139.191L123.354 124.726L137.851 139.191L41.2829 139.191Z" fill="url(#paint9_linear_325_5754)"/>
<path fill-rule="evenodd" clip-rule="evenodd" d="M41.2829 139.191L123.354 153.687L137.851 139.191L41.2829 139.191Z" fill="white"/>
<path fill-rule="evenodd" clip-rule="evenodd" d="M137.851 42.6219L152.348 124.726L137.851 139.191L137.851 42.6219Z" fill="url(#paint10_linear_325_5754)"/>
<path fill-rule="evenodd" clip-rule="evenodd" d="M137.851 42.6219L123.354 124.726L137.851 139.191L137.851 42.6219Z" fill="white"/>
<defs>
<linearGradient id="paint0_linear_325_5754" x1="160.862" y1="93.1692" x2="160.862" y2="140.305" gradientUnits="userSpaceOnUse">
<stop stop-color="#071F1C"/>
<stop offset="1" stop-color="#39D2C0"/>
</linearGradient>
<linearGradient id="paint1_linear_325_5754" x1="160.862" y1="139.191" x2="160.862" y2="186.326" gradientUnits="userSpaceOnUse">
<stop stop-color="#071F1C"/>
<stop offset="1" stop-color="#39D2C0"/>
</linearGradient>
<linearGradient id="paint2_linear_325_5754" x1="114.84" y1="139.191" x2="114.84" y2="186.326" gradientUnits="userSpaceOnUse">
<stop stop-color="#071F1C"/>
<stop offset="1" stop-color="#39D2C0"/>
</linearGradient>
<linearGradient id="paint3_linear_325_5754" x1="114.84" y1="93.1692" x2="114.84" y2="140.305" gradientUnits="userSpaceOnUse">
<stop stop-color="#071F1C"/>
<stop offset="1" stop-color="#39D2C0"/>
</linearGradient>
<linearGradient id="paint4_linear_325_5754" x1="137.867" y1="43.319" x2="137.867" y2="239.734" gradientUnits="userSpaceOnUse">
<stop stop-color="#03685C"/>
<stop offset="1" stop-color="#0A8475"/>
</linearGradient>
<linearGradient id="paint5_linear_325_5754" x1="137.851" y1="32.3674" x2="137.851" y2="251.183" gradientUnits="userSpaceOnUse">
<stop stop-color="#03685C"/>
<stop offset="1" stop-color="#0A8475"/>
</linearGradient>
<linearGradient id="paint6_linear_325_5754" x1="137.851" y1="48.1304" x2="137.851" y2="234.658" gradientUnits="userSpaceOnUse">
<stop stop-color="#112C28"/>
<stop offset="1" stop-color="#117569"/>
</linearGradient>
<linearGradient id="paint7_linear_325_5754" x1="186.135" y1="139.191" x2="186.135" y2="154.037" gradientUnits="userSpaceOnUse">
<stop stop-color="#03685C"/>
<stop offset="1" stop-color="#0A8475"/>
</linearGradient>
<linearGradient id="paint8_linear_325_5754" x1="130.603" y1="139.191" x2="130.603" y2="238.096" gradientUnits="userSpaceOnUse">
<stop stop-color="#03685C"/>
<stop offset="1" stop-color="#0A8475"/>
</linearGradient>
<linearGradient id="paint9_linear_325_5754" x1="89.5669" y1="124.726" x2="89.5669" y2="139.541" gradientUnits="userSpaceOnUse">
<stop stop-color="#03685C"/>
<stop offset="1" stop-color="#0A8475"/>
</linearGradient>
<linearGradient id="paint10_linear_325_5754" x1="145.099" y1="42.6219" x2="145.099" y2="141.527" gradientUnits="userSpaceOnUse">
<stop stop-color="#03685C"/>
<stop offset="1" stop-color="#0A8475"/>
</linearGradient>
</defs>
</svg>
