<svg width="16" height="20" viewBox="0 0 16 20" fill="none" xmlns="http://www.w3.org/2000/svg">
<path d="M14.6894 3.83126L6.01123 0.527538C5.53393 0.345833 4.99132 0.596693 4.80542 1.085C4.61952 1.57332 4.85794 2.12151 5.33524 2.30322L6.20305 2.63359L4.51307 7.07278C3.95199 8.5466 2.33621 9.2936 0.89564 8.74519L0.219648 10.5209L5.40049 12.4932L3.03452 18.7081L3.56433 19.9263L4.77014 19.3688L7.13612 13.1539L12.369 15.1461L13.045 13.3704C11.6045 12.822 10.8945 11.1896 11.4556 9.71576L13.1456 5.27657L14.0134 5.60694C14.4907 5.78864 15.0333 5.53778 15.2192 5.04947C15.4051 4.56116 15.1667 4.01297 14.6894 3.83126Z" fill="#046D61"/>
</svg>
