<svg width="12" height="17" viewBox="0 0 12 17" fill="none" xmlns="http://www.w3.org/2000/svg">
<path d="M7.71429 1.7V5.95C7.71429 6.902 8.03143 7.786 8.57143 8.5H3.42857C3.98571 7.769 4.28571 6.885 4.28571 5.95V1.7H7.71429ZM10.2857 0H1.71429C1.24286 0 0.857143 0.3825 0.857143 0.85C0.857143 1.3175 1.24286 1.7 1.71429 1.7H2.57143V5.95C2.57143 7.361 1.42286 8.5 0 8.5V10.2H5.11714V16.15L5.97429 17L6.83143 16.15V10.2H12V8.5C10.5771 8.5 9.42857 7.361 9.42857 5.95V1.7H10.2857C10.7571 1.7 11.1429 1.3175 11.1429 0.85C11.1429 0.3825 10.7571 0 10.2857 0Z" fill="#DADADA"/>
</svg>
